<svg width="40" height="42" viewBox="0 0 40 42" fill="none" xmlns="http://www.w3.org/2000/svg">
<path d="M14.6887 37.7786V31.9333C14.6887 30.4466 15.9008 29.2385 17.4025 29.2285H22.9034C24.4123 29.2285 25.6355 30.4395 25.6355 31.9333V37.7967C25.6352 39.059 26.6529 40.0907 27.9276 40.1203H31.5949C35.2507 40.1203 38.2143 37.1863 38.2143 33.5671V16.939C38.1948 15.5152 37.5195 14.1782 36.3806 13.3084L23.8386 3.30619C21.6414 1.5646 18.5179 1.5646 16.3207 3.30619L3.83363 13.3266C2.69047 14.1928 2.01408 15.5321 2 16.9572V33.5671C2 37.1863 4.96362 40.1203 8.61942 40.1203H12.2867C13.5931 40.1203 14.6521 39.0719 14.6521 37.7786" stroke="black" stroke-width="2.85902" stroke-linecap="round" stroke-linejoin="round"/>
</svg>
