<svg width="50" height="49" viewBox="0 0 50 49" fill="none" xmlns="http://www.w3.org/2000/svg">
<path fill-rule="evenodd" clip-rule="evenodd" d="M46.9975 7.19216C46.7505 6.9813 46.4301 6.87665 46.1062 6.90101C45.7823 6.92538 45.4812 7.07679 45.2685 7.32223C45.0558 7.56768 44.9487 7.88726 44.9706 8.21132C44.9925 8.53538 45.1417 8.83764 45.3855 9.0522C45.9274 9.4818 46.3651 10.0285 46.6657 10.6512C46.9664 11.274 47.1222 11.9567 47.1215 12.6483V41.4169C47.1033 42.6281 46.614 43.7845 45.7575 44.641C44.901 45.4976 43.7446 45.9868 42.5334 46.005H7.06863C5.85747 45.9868 4.70104 45.4976 3.84452 44.641C2.98801 43.7845 2.49877 42.6281 2.48053 41.4169V12.6483C2.49877 11.4371 2.98801 10.2807 3.84452 9.42418C4.70104 8.56767 5.85747 8.07842 7.06863 8.06018H25.669C25.9979 8.06018 26.3133 7.92954 26.5459 7.69699C26.7784 7.46444 26.9091 7.14903 26.9091 6.82015C26.9091 6.49128 26.7784 6.17587 26.5459 5.94332C26.3133 5.71077 25.9979 5.58013 25.669 5.58013H7.06863C6.13743 5.56932 5.21346 5.74477 4.35103 6.09615C3.4886 6.44753 2.70511 6.96776 2.04661 7.62626C1.3881 8.28477 0.867874 9.06826 0.516492 9.93069C0.16511 10.7931 -0.0103345 11.7171 0.000470368 12.6483V41.2929C0.0426313 45.1792 3.18238 48.3189 7.06863 48.3611H42.4094C43.3377 48.3775 44.26 48.2109 45.1239 47.8708C45.9877 47.5307 46.7761 47.0237 47.444 46.3789C48.1119 45.734 48.6462 44.9639 49.0164 44.1125C49.3866 43.2612 49.5854 42.3452 49.6016 41.4169V12.6483C49.5893 11.6044 49.35 10.5757 48.9003 9.63348C48.4507 8.69131 47.8014 7.85827 46.9975 7.19216ZM34.8453 42.1609C34.956 42.367 35.1157 42.5426 35.3103 42.6724C35.505 42.8021 35.7285 42.882 35.9613 42.905C36.2005 42.9073 36.4349 42.8376 36.6339 42.7049C36.833 42.5722 36.9875 42.3827 37.0773 42.1609L40.7974 34.5968C40.896 34.4513 40.9399 34.2756 40.9214 34.1008V4.96011C40.9214 3.64461 40.3988 2.38298 39.4686 1.45278C38.5384 0.522582 37.2768 0 35.9613 0C34.6458 0 33.3842 0.522582 32.454 1.45278C31.5238 2.38298 31.0012 3.64461 31.0012 4.96011V34.1008C30.9839 34.1875 30.9861 34.2769 31.0075 34.3627C31.029 34.4485 31.0691 34.5284 31.1252 34.5968L34.8453 42.1609ZM35.9613 38.8129L34.2252 35.3408H37.6973L35.9613 38.8129ZM33.4812 4.96011C33.4812 4.30236 33.7425 3.67155 34.2076 3.20645C34.6727 2.74135 35.3035 2.48006 35.9613 2.48006C36.619 2.48006 37.2498 2.74135 37.7149 3.20645C38.18 3.67155 38.4413 4.30236 38.4413 4.96011V15.6244H33.4812V4.96011ZM33.4812 18.1044H38.4413V20.5845H33.4812V18.1044ZM33.4812 23.1885H38.4413V32.8607H33.4812V23.1885ZM24.677 20.0885H7.56464C7.23576 20.0885 6.92036 20.2191 6.68781 20.4516C6.45526 20.6842 6.32461 20.9996 6.32461 21.3285C6.32461 21.6574 6.45526 21.9728 6.68781 22.2053C6.92036 22.4379 7.23576 22.5685 7.56464 22.5685H24.801C24.9573 22.5651 25.1112 22.5297 25.2532 22.4645C25.3953 22.3994 25.5225 22.3059 25.627 22.1897C25.7316 22.0735 25.8113 21.9372 25.8611 21.7891C25.911 21.641 25.93 21.4842 25.9171 21.3285C25.927 21.163 25.9017 20.9974 25.8429 20.8424C25.7841 20.6875 25.6931 20.5468 25.5759 20.4296C25.4588 20.3124 25.318 20.2214 25.1631 20.1626C25.0081 20.1038 24.8425 20.0785 24.677 20.0885ZM24.677 25.0486H7.56464C7.23576 25.0486 6.92036 25.1792 6.68781 25.4118C6.45526 25.6443 6.32461 25.9597 6.32461 26.2886C6.32461 26.6175 6.45526 26.9329 6.68781 27.1654C6.92036 27.398 7.23576 27.5286 7.56464 27.5286H24.801C24.9573 27.5252 25.1112 27.4898 25.2532 27.4247C25.3953 27.3595 25.5225 27.266 25.627 27.1498C25.7316 27.0336 25.8113 26.8973 25.8611 26.7492C25.911 26.6011 25.93 26.4443 25.9171 26.2886C25.927 26.1232 25.9017 25.9575 25.8429 25.8025C25.7841 25.6476 25.6931 25.5069 25.5759 25.3897C25.4588 25.2725 25.318 25.1815 25.1631 25.1227C25.0081 25.0639 24.8425 25.0386 24.677 25.0486ZM24.677 30.0087H7.56464C7.23576 30.0087 6.92036 30.1393 6.68781 30.3719C6.45526 30.6044 6.32461 30.9198 6.32461 31.2487C6.32461 31.5776 6.45526 31.893 6.68781 32.1255C6.92036 32.3581 7.23576 32.4887 7.56464 32.4887H24.801C24.9573 32.4853 25.1112 32.4499 25.2532 32.3848C25.3953 32.3196 25.5225 32.2261 25.627 32.1099C25.7316 31.9938 25.8113 31.8574 25.8611 31.7093C25.911 31.5612 25.93 31.4044 25.9171 31.2487C25.927 31.0833 25.9017 30.9176 25.8429 30.7626C25.7841 30.6077 25.6931 30.467 25.5759 30.3498C25.4588 30.2326 25.318 30.1416 25.1631 30.0828C25.0081 30.024 24.8425 29.9987 24.677 30.0087Z" fill="black"/>
</svg>
