<svg width="24" height="25" viewBox="0 0 24 25" fill="none" xmlns="http://www.w3.org/2000/svg">
<path d="M0.436655 22.0328L6.4086 15.8596L8.78516 18.0776L2.81224 24.2542C2.66702 24.41 2.49241 24.5356 2.29846 24.6237C2.10451 24.7117 1.89506 24.7606 1.68216 24.7673H1.62445C1.30784 24.767 0.998233 24.6742 0.733601 24.5004C0.468967 24.3266 0.260824 24.0793 0.134705 23.7889C0.00858498 23.4985 -0.0300245 23.1776 0.023613 22.8656C0.0772495 22.5536 0.220801 22.264 0.436655 22.0324V22.0328Z" fill="black"/>
<path d="M9.21753 14.6849L9.74951 15.1812L7.60932 17.4754L7.07733 16.9792L9.21753 14.6849Z" fill="black"/>
<path d="M12.6836 4.64232L13.043 5.27284C13.5729 4.97169 14.157 4.77789 14.7618 4.70249C15.3666 4.62709 15.9803 4.67157 16.5679 4.83339C17.1556 4.99522 17.7056 5.27122 18.1865 5.64562C18.6674 6.02003 19.0699 6.48551 19.371 7.01548L20.0015 6.65657C19.2979 5.41939 18.1318 4.51224 16.7595 4.13453C15.3873 3.75682 13.9212 3.93947 12.6836 4.64232Z" fill="black"/>
<path d="M8.80347 2.78758C12.1064 -0.753007 17.6748 -0.947011 21.2159 2.35543C22.8929 3.92353 23.8891 6.08596 23.9913 8.37958C24.0935 10.6732 23.2934 12.9157 21.7625 14.6266C20.2316 16.3376 18.0916 17.3811 15.8007 17.5336C13.5099 17.6861 11.2504 16.9355 9.50625 15.4425C9.41442 15.3639 9.32405 15.2831 9.23513 15.2C9.14589 15.1171 9.05907 15.0322 8.97419 14.9463C7.38257 13.3332 6.47611 11.1672 6.44429 8.90128C6.41247 6.63533 7.25777 4.44479 8.80347 2.78758ZM8.08905 9.02967C8.15325 10.8782 8.93235 12.6297 10.2622 13.9153C11.5921 15.2009 13.369 15.9202 15.2187 15.9217C15.3031 15.9217 15.388 15.9202 15.4733 15.9173C16.4108 15.8872 17.3331 15.6715 18.1866 15.2826C19.0402 14.8937 19.8082 14.3394 20.4462 13.6518C23.1317 10.7709 22.9741 6.24571 20.095 3.5602C19.0624 2.59686 17.7673 1.96138 16.3735 1.73413C14.9796 1.50689 13.5497 1.69809 12.2646 2.28356C10.9795 2.86902 9.8968 3.82244 9.15355 5.02325C8.4103 6.22406 8.03985 7.61831 8.08905 9.02967Z" fill="black"/>
<path d="M12.6836 4.64232L13.043 5.27284C13.5729 4.97169 14.157 4.77789 14.7618 4.70249C15.3666 4.62709 15.9803 4.67157 16.5679 4.83339C17.1556 4.99522 17.7056 5.27122 18.1865 5.64562C18.6674 6.02003 19.0699 6.48551 19.371 7.01548L20.0015 6.65657C19.2979 5.41939 18.1318 4.51224 16.7595 4.13453C15.3873 3.75682 13.9212 3.93947 12.6836 4.64232Z" fill="white"/>
<path d="M12.6836 4.64232L13.043 5.27284C13.5729 4.97169 14.157 4.77789 14.7618 4.70249C15.3666 4.62709 15.9803 4.67157 16.5679 4.83339C17.1556 4.99522 17.7056 5.27122 18.1865 5.64562C18.6674 6.02003 19.0699 6.48551 19.371 7.01548L20.0015 6.65657C19.2979 5.41939 18.1318 4.51224 16.7595 4.13453C15.3873 3.75682 13.9212 3.93947 12.6836 4.64232Z" fill="black"/>
</svg>
