<svg width="50" height="54" viewBox="0 0 50 54" fill="none" xmlns="http://www.w3.org/2000/svg">
<path fill-rule="evenodd" clip-rule="evenodd" d="M47.8663 15.9878L46.2376 13.1615C44.8597 10.77 41.8061 9.94504 39.4113 11.3172C38.2714 11.9888 36.9112 12.1793 35.6306 11.8468C34.35 11.5143 33.2543 10.6861 32.5851 9.54481C32.1545 8.81939 31.9232 7.99315 31.9144 7.14963C31.9533 5.79726 31.4431 4.48675 30.5 3.51664C29.557 2.54653 28.2614 1.99944 26.9085 2H23.6271C22.3017 2 21.0308 2.52816 20.0958 3.46764C19.1608 4.40713 18.6388 5.68048 18.6452 7.00592C18.6059 9.74252 16.3761 11.9403 13.6392 11.94C12.7957 11.9312 11.9695 11.6999 11.2441 11.2693C8.84929 9.89713 5.7957 10.7221 4.41779 13.1136L2.66931 15.9878C1.29308 18.3763 2.10686 21.428 4.48965 22.8141C6.0385 23.7083 6.99264 25.3609 6.99264 27.1494C6.99264 28.9378 6.0385 30.5904 4.48965 31.4846C2.10988 32.8614 1.29522 35.9057 2.66931 38.2869L4.32199 41.1372C4.96759 42.3021 6.0508 43.1618 7.33193 43.5259C8.61305 43.89 9.98646 43.7286 11.1482 43.0773C12.2903 42.4109 13.6513 42.2283 14.9287 42.5701C16.206 42.912 17.2939 43.7499 17.9505 44.8976C18.3811 45.6231 18.6124 46.4493 18.6212 47.2928C18.6212 50.0575 20.8624 52.2987 23.6271 52.2987H26.9085C29.6639 52.2987 31.9013 50.0721 31.9144 47.3168C31.908 45.9872 32.4334 44.7102 33.3736 43.77C34.3137 42.8298 35.5908 42.3044 36.9204 42.3108C37.7619 42.3334 38.5847 42.5638 39.3155 42.9815C41.704 44.3577 44.7557 43.544 46.1418 41.1612L47.8663 38.2869C48.5338 37.1412 48.7171 35.7766 48.3754 34.4954C48.0337 33.2141 47.1954 32.1219 46.046 31.4607C44.8966 30.7994 44.0583 29.7073 43.7166 28.426C43.3749 27.1448 43.5581 25.7802 44.2257 24.6344C44.6597 23.8766 45.2881 23.2482 46.046 22.8141C48.4145 21.4288 49.2264 18.3949 47.8663 16.0118V15.9878Z" stroke="black" stroke-width="2.32598" stroke-linecap="round" stroke-linejoin="round"/>
<path d="M25.28 34.047C29.0895 34.047 32.1777 30.9588 32.1777 27.1493C32.1777 23.3398 29.0895 20.2516 25.28 20.2516C21.4705 20.2516 18.3823 23.3398 18.3823 27.1493C18.3823 30.9588 21.4705 34.047 25.28 34.047Z" stroke="black" stroke-width="1.83989" stroke-linecap="round" stroke-linejoin="round"/>
</svg>
